<?xml version="1.0" encoding="utf-8"?>
<!-- Generator: Adobe Illustrator 23.0.2, SVG Export Plug-In . SVG Version: 6.00 Build 0)  -->
<svg version="1.1" id="Layer_1" xmlns="http://www.w3.org/2000/svg" xmlns:xlink="http://www.w3.org/1999/xlink" x="0px" y="0px"
	 viewBox="0 0 497.02 595.28" style="enable-background:new 0 0 497.02 595.28;" xml:space="preserve">
<style type="text/css">
	.st0{fill:#5FC7CE;}
	.st1{fill:#FFFFFF;}
	.st2{fill:#18224B;}
	.st3{opacity:0.86;fill:#5FC7CE;}
</style>
<g>
	<path class="st2" d="M340.5,479.23L234.67,299.74c-10.32-17.51-28.55-27.92-48.84-27.92c-0.18,0-0.36,0-0.54,0
		c-20.51,0.19-38.78,10.96-48.87,28.81L33.89,482.04c-10.09,17.85-9.9,39.06,0.52,56.73c10.32,17.51,28.55,27.92,48.84,27.92
		c0.18,0,0.36,0,0.54,0l208.36-1.91c20.51-0.19,38.78-10.96,48.87-28.82C351.11,518.11,350.92,496.9,340.5,479.23z"/>
	<path class="st3" d="M452.82,478.28L346.99,298.79c-10.32-17.51-28.55-27.92-48.84-27.92c-0.18,0-0.36,0-0.55,0
		c-20.51,0.19-38.78,10.96-48.87,28.82l-102.53,181.4c-10.09,17.85-9.9,39.06,0.52,56.73c10.32,17.51,28.55,27.92,48.85,27.92
		c0.18,0,0.36,0,0.54,0l208.36-1.91c20.51-0.19,38.78-10.96,48.87-28.81C463.43,517.15,463.24,495.94,452.82,478.28z"/>
</g>
<circle class="st0" cx="243.62" cy="141.26" r="114.39"/>
</svg>
