<?xml version="1.0" encoding="utf-8"?>
<!-- Generator: Adobe Illustrator 23.0.2, SVG Export Plug-In . SVG Version: 6.00 Build 0)  -->
<svg version="1.1" id="Layer_1" xmlns="http://www.w3.org/2000/svg" xmlns:xlink="http://www.w3.org/1999/xlink" x="0px" y="0px"
	 viewBox="0 0 841.89 595.28" style="enable-background:new 0 0 841.89 595.28;" xml:space="preserve">
<style type="text/css">
	.st0{fill:none;}
	.st1{fill:#1E1C57;}
	.st2{fill:none;stroke:#1E1C57;stroke-width:13;stroke-miterlimit:10;}
	.st3{fill:#CFA32B;}
	.st4{fill:#FFFFFF;}
</style>
<path class="st0" d="M368.39,563.13c0,0,0-0.01,0-0.01l-0.35-0.01C368.16,563.11,368.27,563.12,368.39,563.13z"/>
<path class="st0" d="M381.06,563.48c0.33,0,0.66,0.01,0.99,0.01l-0.99-0.03C381.06,563.47,381.06,563.48,381.06,563.48z"/>
<path class="st1" d="M368.04,563.1c-0.05,0-0.1-0.01-0.15-0.01l0,0.01L368.04,563.1z"/>
<g>
	<path class="st0" d="M442.56,86.93c0,14.7,0,29.12,0,43.86c30.1,0,59.94,0,90.05,0c0-14.72,0-29.15,0-43.55
		C529.58,86.4,449.14,86.09,442.56,86.93z"/>
	<path class="st0" d="M531.61,70.55c0.32-2.87-0.64-4.81-3.31-5.79c-1.67-0.61-3.55-0.95-5.33-0.96c-23.61-0.06-47.21-0.06-70.82,0
		c-1.65,0-3.41,0.24-4.92,0.86c-2.39,0.97-4.37,2.52-4.01,5.9C472.75,70.55,502.18,70.55,531.61,70.55z"/>
	<path class="st0" d="M531.61,70.55c0.32-2.87-0.64-4.81-3.31-5.79c-1.67-0.61-3.55-0.95-5.33-0.96c-23.61-0.06-47.21-0.06-70.82,0
		c-1.65,0-3.41,0.24-4.92,0.86c-2.39,0.97-4.37,2.52-4.01,5.9C472.75,70.55,502.18,70.55,531.61,70.55z"/>
	<path class="st0" d="M442.56,86.93c0,14.7,0,29.12,0,43.86c30.1,0,59.94,0,90.05,0c0-14.72,0-29.15,0-43.55
		C529.58,86.4,449.14,86.09,442.56,86.93z"/>
	<path class="st0" d="M442.56,86.93c0,14.7,0,29.12,0,43.86c30.1,0,59.94,0,90.05,0c0-14.72,0-29.15,0-43.55
		C529.58,86.4,449.14,86.09,442.56,86.93z"/>
	<path class="st0" d="M531.61,70.55c0.32-2.87-0.64-4.81-3.31-5.79c-1.67-0.61-3.55-0.95-5.33-0.96c-23.61-0.06-47.21-0.06-70.82,0
		c-1.65,0-3.41,0.24-4.92,0.86c-2.39,0.97-4.37,2.52-4.01,5.9C472.75,70.55,502.18,70.55,531.61,70.55z"/>
	<path class="st0" d="M531.61,70.55c0.32-2.87-0.64-4.81-3.31-5.79c-1.67-0.61-3.55-0.95-5.33-0.96c-23.61-0.06-47.21-0.06-70.82,0
		c-1.65,0-3.41,0.24-4.92,0.86c-2.39,0.97-4.37,2.52-4.01,5.9C472.75,70.55,502.18,70.55,531.61,70.55z"/>
	<path class="st0" d="M442.56,86.93c0,14.7,0,29.12,0,43.86c30.1,0,59.94,0,90.05,0c0-14.72,0-29.15,0-43.55
		C529.58,86.4,449.14,86.09,442.56,86.93z"/>
	<path class="st0" d="M531.61,70.55c0.32-2.87-0.64-4.81-3.31-5.79c-1.67-0.61-3.55-0.95-5.33-0.96c-23.61-0.06-47.21-0.06-70.82,0
		c-1.65,0-3.41,0.24-4.92,0.86c-2.39,0.97-4.37,2.52-4.01,5.9C472.75,70.55,502.18,70.55,531.61,70.55z"/>
	<path class="st0" d="M442.56,86.93c0,14.7,0,29.12,0,43.86c30.1,0,59.94,0,90.05,0c0-14.72,0-29.15,0-43.55
		C529.58,86.4,449.14,86.09,442.56,86.93z"/>
	<path class="st3" d="M569.07,250.15c0-1.83,0.07-3.66-0.05-5.49c-0.43-6.46-2.46-12.35-6.42-17.54
		c-6.76-8.88-16.07-12.49-26.84-12.52c-36.02-0.11-72.03-0.05-108.05-0.01c-0.88,0-1.78,0.07-2.67,0.19h-52.98h-3.52h-78.49
		c-2.69-11.94-13.38-20.89-26.12-20.89c-14.77,0-26.79,12.02-26.79,26.79c0,14.77,12.02,26.79,26.79,26.79
		c11.18,0,20.78-6.89,24.78-16.64h67.03v0h8.16h0.32h7.83v0h0H427c0,0,0.01,0,0.01,0c7.17,0.09,14.35,0.04,21.53,0.04
		c29.12,0,58.25-0.04,87.37,0.07c2.87,0.01,6,0.38,8.56,1.57c5.2,2.41,8.19,6.7,8.31,12.67c0.03,1.41,0.07,2.81,0.07,4.22
		c0,18.43,0,36.86,0,55.29h-0.05v164.61h16.3V304.67h0C569.07,286.5,569.07,268.32,569.07,250.15z M263.92,233.25
		c-6.93,0-12.57-5.64-12.57-12.57c0-6.93,5.64-12.57,12.57-12.57c6.93,0,12.57,5.64,12.57,12.57
		C276.49,227.61,270.85,233.25,263.92,233.25z"/>
	<path class="st3" d="M513.24,311.74c0-1.17,0-2.35,0-3.52c0-1.83,0.07-3.66-0.05-5.49c-0.43-6.46-2.46-12.35-6.42-17.54
		c-6.76-8.88-16.07-12.49-26.84-12.52c-36.02-0.11-72.03-0.05-108.05-0.01c-0.88,0-1.78,0.07-2.67,0.19h-52.98h-3.52h-78.49
		c-2.69-11.94-13.38-20.89-26.12-20.89c-14.77,0-26.79,12.02-26.79,26.79s12.02,26.79,26.79,26.79c11.18,0,20.78-6.89,24.78-16.64
		h67.03h8.16h0.32h7.83h0h54.95c0,0,0.01,0,0.01,0c7.17,0.09,14.35,0.04,21.53,0.04c29.12,0,58.25-0.04,87.37,0.07
		c2.87,0.01,6,0.38,8.56,1.57c5.2,2.41,8.19,6.7,8.31,12.67c0.03,1.41,0.07,2.81,0.07,4.22c0,1.43,0,2.86,0,4.29h0v6.1
		c0,21.95,0,43.9,0,65.85h0v127.45h16.26V311.74H513.24z M208.08,291.31c-6.93,0-12.57-5.64-12.57-12.57s5.64-12.57,12.57-12.57
		c6.93,0,12.57,5.64,12.57,12.57S215.02,291.31,208.08,291.31z"/>
	<path class="st3" d="M458.9,364.47c0-1.83,0.07-3.66-0.05-5.49c-0.43-6.46-2.46-12.35-6.42-17.54
		c-6.76-8.88-16.07-12.49-26.84-12.52c-30.05-0.09-60.1-0.06-90.15-0.02l-20.99,0.21c-2.69-11.94-13.38-20.89-26.12-20.89
		c-14.77,0-26.79,12.02-26.79,26.79c0,14.77,12.02,26.79,26.79,26.79c11.18,0,20.78-6.89,24.78-16.64h22.33v0.04
		c0.98,0,1.95,0,2.93,0c29.12,0,58.25-0.04,87.37,0.07c2.87,0.01,6,0.38,8.56,1.57c5.2,2.41,8.19,6.7,8.31,12.67
		c0.03,1.41,0.07,2.81,0.07,4.22c0,25.42,0,164.73,0,190.15h16.24C458.9,528.68,458.9,389.63,458.9,364.47z M288.32,347.56
		c-6.93,0-12.57-5.64-12.57-12.57c0-6.93,5.64-12.57,12.57-12.57c6.93,0,12.57,5.64,12.57,12.57
		C300.9,341.92,295.26,347.56,288.32,347.56z"/>
	<path class="st0" d="M442.56,86.93c0,14.7,0,29.12,0,43.86c30.1,0,59.94,0,90.05,0c0-14.72,0-29.15,0-43.55
		C529.58,86.4,449.14,86.09,442.56,86.93z"/>
	<path class="st0" d="M531.61,70.55c0.32-2.87-0.64-4.81-3.31-5.79c-1.67-0.61-3.55-0.95-5.33-0.96c-23.61-0.06-47.21-0.06-70.82,0
		c-1.65,0-3.41,0.24-4.92,0.86c-2.39,0.97-4.37,2.52-4.01,5.9C472.75,70.55,502.18,70.55,531.61,70.55z"/>
	<path class="st0" d="M531.61,70.55c0.32-2.87-0.64-4.81-3.31-5.79c-1.67-0.61-3.55-0.95-5.33-0.96c-23.61-0.06-47.21-0.06-70.82,0
		c-1.65,0-3.41,0.24-4.92,0.86c-2.39,0.97-4.37,2.52-4.01,5.9C472.75,70.55,502.18,70.55,531.61,70.55z"/>
	<path class="st0" d="M442.56,86.93c0,14.7,0,29.12,0,43.86c30.1,0,59.94,0,90.05,0c0-14.72,0-29.15,0-43.55
		C529.58,86.4,449.14,86.09,442.56,86.93z"/>
	<path class="st0" d="M531.61,70.55c0.32-2.87-0.64-4.81-3.31-5.79c-1.67-0.61-3.55-0.96-5.33-0.96c-23.61-0.06-47.21-0.06-70.82,0
		c-1.65,0-3.41,0.24-4.92,0.86c-2.39,0.97-4.37,2.52-4.01,5.9C472.75,70.55,502.18,70.55,531.61,70.55z"/>
	<path class="st0" d="M442.56,86.93c0,14.7,0,29.12,0,43.86c30.1,0,59.94,0,90.05,0c0-14.72,0-29.15,0-43.55
		C529.58,86.4,449.14,86.09,442.56,86.93z"/>
	<path class="st1" d="M624.55,405.29c0-77.81,0.01-155.62,0-233.43c0-7.86-1.46-15.37-5.8-22.09c-6.9-10.69-16.49-17.31-29.34-17.98
		c-11.78-0.62-23.6-0.49-35.4-0.68c-1.64-0.03-3.28,0-5.4,0c0-2.1,0-3.61,0-5.12c0-18.29,0.05-36.58-0.03-54.87
		c-0.04-10.98-6.94-19.7-17.59-22.39c-1.74-0.44-3.6-0.6-5.41-0.6c-25.32-0.04-50.65,0.12-75.97-0.09
		c-11.86-0.1-23.08,9.91-23.03,23.08c0.07,18.01,0.01,36.02,0.01,54.03c0,1.68,0,3.36,0,5.59c-1.63,0.13-3.1,0.36-4.56,0.36
		c-9.71,0.03-19.42-0.2-29.12,0.11c-5,0.16-10.19,0.57-14.92,2.07c-14.97,4.73-24,15.02-26.6,30.65c-0.44,2.62-0.72,5.3-0.72,7.95
		c0,10.76,0,21.52-0.01,32.28h16.25c0-10,0-20,0-30.01c0-1.83,0.05-3.66,0.06-5.49c0.07-6.8,3.04-12.19,8.22-16.38
		c4.69-3.79,10.23-4.98,16.17-4.98c64.16,0.03,128.31,0.02,192.47,0.02c0.98,0,1.97-0.03,2.95,0.03
		c10.17,0.57,18.48,7.07,20.85,16.72c0.72,2.95,0.64,6.13,0.64,9.21c0.03,78.51,0.03,157.01,0.02,235.52c0,0,0,0,0,0v19.16h0.55
		h12.97h2.76L624.55,405.29L624.55,405.29z M447.22,64.65c1.51-0.62,3.27-0.85,4.92-0.86c23.61-0.05,47.21-0.06,70.82,0
		c1.78,0,3.66,0.35,5.33,0.96c2.67,0.98,3.64,2.92,3.31,5.79c-29.43,0-58.86,0-88.4,0C442.85,67.17,444.83,65.62,447.22,64.65z
		 M532.61,130.79c-30.1,0-59.95,0-90.05,0c0-14.74,0-29.17,0-43.86c6.58-0.83,87.02-0.53,90.05,0.31
		C532.61,101.64,532.61,116.07,532.61,130.79z"/>
</g>
</svg>
