<?xml version="1.0" encoding="utf-8"?>
<!-- Generator: Adobe Illustrator 23.0.2, SVG Export Plug-In . SVG Version: 6.00 Build 0)  -->
<svg version="1.1" id="Layer_1" xmlns="http://www.w3.org/2000/svg" xmlns:xlink="http://www.w3.org/1999/xlink" x="0px" y="0px"
	 viewBox="0 0 497.021 595.276" style="enable-background:new 0 0 497.021 595.276;" xml:space="preserve">
<style type="text/css">
	.st0{fill:#18224B;}
	.st1{opacity:0.86;fill:#F7941D;}
	.st2{opacity:0.86;}
	.st3{fill:#F7941D;}
	.st4{fill:#FFFFFF;}
	.st5{fill:none;stroke:#18224B;stroke-width:6;stroke-miterlimit:10;}
</style>
<path class="st0" d="M137.716,558.848l161.037-93.464c15.71-9.118,25.121-25.341,25.246-43.473c0.001-0.162,0.002-0.326,0.001-0.487
	c-0.041-18.327-9.556-34.717-25.448-43.843l-161.46-92.73c-15.892-9.127-34.842-9.085-50.693,0.115
	c-15.712,9.118-25.123,25.341-25.248,43.475c-0.001,0.161-0.002,0.325-0.001,0.485l0.426,186.193
	c0.041,18.327,9.554,34.717,25.445,43.844C102.915,568.09,121.865,568.048,137.716,558.848z"/>
<path class="st1" d="M269.456,559.756l161.037-93.464c15.71-9.118,25.121-25.341,25.246-43.473c0.001-0.162,0.002-0.326,0.001-0.487
	c-0.041-18.327-9.556-34.717-25.448-43.843l-161.46-92.73c-15.892-9.127-34.842-9.085-50.693,0.115
	c-15.712,9.118-25.123,25.341-25.248,43.475c-0.001,0.161-0.002,0.325-0.001,0.485l0.426,186.193
	c0.041,18.327,9.554,34.717,25.445,43.844C234.655,568.998,253.605,568.955,269.456,559.756z"/>
<circle class="st1" cx="155.839" cy="129.076" r="114.557"/>
</svg>
